snake_lateral_undulation_ik.mot	
version=1	
nRows=91
nColumns=2	
inDegrees=yes	
	
Units are S.I. units (second, meters, Newtons, ...)
Angles are in degrees.
	
endheader	
time	rib1_rotation
0.00	0.00
0.01	1.00
0.02	2.00
0.03	3.00
0.04	4.00
0.05	5.00
0.06	6.00
0.07	7.00
0.08	8.00
0.09	9.00
0.10	10.00
0.11	11.00
0.12	12.00
0.13	13.00
0.14	14.00
0.15	15.00
0.16	16.00
0.17	17.00
0.18	18.00
0.19	19.00
0.20	20.00
0.21	21.00
0.22	22.00
0.23	23.00
0.24	24.00
0.25	25.00
0.26	26.00
0.27	27.00
0.28	28.00
0.29	29.00
0.30	30.00
0.31	29.00
0.32	28.00
0.33	27.00
0.34	26.00
0.35	25.00
0.36	24.00
0.37	23.00
0.38	22.00
0.39	21.00
0.40	20.00
0.41	19.00
0.42	18.00
0.43	17.00
0.44	16.00
0.45	15.00
0.46	14.00
0.47	13.00
0.48	12.00
0.49	11.00
0.50	10.00
0.51	9.00
0.52	8.00
0.53	7.00
0.54	6.00
0.55	5.00
0.56	4.00
0.57	3.00
0.58	2.00
0.59	1.00
0.60	0.00
0.61	-1.00
0.62	-2.00
0.63	-3.00
0.64	-4.00
0.65	-5.00
0.66	-6.00
0.67	-7.00
0.68	-8.00
0.69	-9.00
0.70	-10.00
0.71	-11.00
0.72	-12.00
0.73	-13.00
0.74	-14.00
0.75	-15.00
0.76	-16.00
0.77	-17.00
0.78	-18.00
0.79	-19.00
0.80	-20.00
0.81	-21.00
0.82	-22.00
0.83	-23.00
0.84	-24.00
0.85	-25.00
0.86	-26.00
0.87	-27.00
0.88	-28.00
0.89	-29.00
0.90	-30.00
